<?xml version="1.0" encoding="UTF-8" standalone="no"?>
<svg
   version="1.1"
   id="svg129"
   width="120.24583"
   height="31.214251"
   sodipodi:docname="logo_white_with_text.svg"
   inkscape:version="1.1 (c4e8f9ed74, 2021-05-24)"
   xmlns:inkscape="http://www.inkscape.org/namespaces/inkscape"
   xmlns:sodipodi="http://sodipodi.sourceforge.net/DTD/sodipodi-0.dtd"
   xmlns="http://www.w3.org/2000/svg"
   xmlns:svg="http://www.w3.org/2000/svg">
  <sodipodi:namedview
     id="namedview992"
     pagecolor="#505050"
     bordercolor="#eeeeee"
     borderopacity="1"
     inkscape:pageshadow="0"
     inkscape:pageopacity="0"
     inkscape:pagecheckerboard="0"
     showgrid="false"
     inkscape:zoom="10.990709"
     inkscape:cx="30.707755"
     inkscape:cy="12.692539"
     inkscape:window-width="1680"
     inkscape:window-height="1022"
     inkscape:window-x="0"
     inkscape:window-y="28"
     inkscape:window-maximized="1"
     inkscape:current-layer="layer4"
     fit-margin-top="0"
     fit-margin-left="0"
     fit-margin-right="0"
     fit-margin-bottom="0" />
  <defs
     id="defs133" />
  <style
     id="style113" />
  <g
     id="layer1"
     style="display:inline"
     transform="matrix(0.7,0,0,0.7,70.258843,-3.4122498)">
    <g
       aria-label="x"
       id="text115"
       style="font-style:italic;font-weight:600;font-size:23.5556px;font-family:'Source Code Pro';-inkscape-font-specification:'Source Code Pro, Semi-Bold Italic';fill:#ffffff" />
    <g
       aria-label="f"
       id="text125"
       style="font-style:italic;font-weight:600;font-size:23.5556px;font-family:'Source Code Pro';-inkscape-font-specification:'Source Code Pro, Semi-Bold Italic';fill:#ffffff" />
    <g
       aria-label="x"
       id="text127"
       style="font-style:italic;font-weight:600;font-size:23.5556px;font-family:'Source Code Pro';-inkscape-font-specification:'Source Code Pro, Semi-Bold Italic';fill:#ffffff" />
  </g>
  <g
     id="layer2"
     style="display:inline"
     transform="matrix(0.7,0,0,0.7,70.416998,-3.5102578)" />
  <text
     xml:space="preserve"
     style="font-style:normal;font-weight:normal;font-size:40px;line-height:1.25;font-family:sans-serif;fill:#000000;fill-opacity:1;stroke:none"
     x="61.100704"
     y="-3.2563901"
     id="text4626"><tspan
       sodipodi:role="line"
       id="tspan4624"
       x="61.100704"
       y="-3.2563901"></tspan></text>
  <text
     xml:space="preserve"
     style="font-style:normal;font-weight:normal;font-size:40px;line-height:1.25;font-family:sans-serif;fill:#000000;fill-opacity:1;stroke:none"
     x="29.431503"
     y="-67.306152"
     id="text16702"><tspan
       sodipodi:role="line"
       id="tspan16700"
       x="29.431503"
       y="-67.306152"></tspan></text>
  <g
     aria-label="Fixed"
     id="text25666"
     style="font-size:18.6667px;line-height:1.25;font-family:Hack;-inkscape-font-specification:'Hack, Normal';fill:#ffffff"
     transform="translate(-2.9094517e-6,0.49666016)">
    <path
       d="M 4.8490538,0.57422025 H 12.860787 V 2.1237022 H 6.6993176 v 4.1927159 h 5.5872494 v 1.549482 H 6.6993176 V 14.182318 H 4.8490538 Z"
       id="path34390" />
    <path
       d="m 18.730589,2.1237022 q -0.273438,0 -0.273438,-0.273438 V 0.27343846 Q 18.457151,4.6566129e-7 18.730589,4.6566129e-7 h 1.312502 q 0.273438,0 0.273438,0.27343799433871 V 1.8502642 q 0,0.273438 -0.273438,0.273438 z m 3.062506,12.1315328 q -1.503909,0 -2.333338,-0.966148 -0.820314,-0.975262 -0.820314,-2.73438 V 5.2864683 H 16.406366 V 3.973966 h 3.910163 v 6.580741 q 0,1.111981 0.419272,1.695316 0.419272,0.583334 1.221356,0.583334 h 1.959639 v 1.421878 z"
       id="path34392" />
    <path
       d="M 29.905088,8.8593915 26.250134,3.973966 h 1.859378 l 2.707036,3.6914129 2.688807,-3.6914129 h 1.886722 l -3.654954,4.8854255 4.010424,5.3229265 h -1.94141 l -2.989589,-4.092456 -2.980474,4.092456 h -1.94141 z"
       id="path34394" />
    <path
       d="m 42.619955,14.446641 q -2.360681,0 -3.709642,-1.412763 -1.339846,-1.421877 -1.339846,-3.8737047 0,-1.5221382 0.528647,-2.7526092 0.537761,-1.230471 1.58594,-1.9505243 1.057294,-0.729168 2.606776,-0.729168 2.04167,0 3.162766,1.3125023 1.13021,1.3033878 1.13021,3.6184962 V 9.4791842 H 39.32047 v 0.054688 q 0,1.5950548 0.838544,2.5429728 0.838543,0.947919 2.479171,0.947919 0.947918,0 1.832034,-0.300782 0.893231,-0.300782 1.72266,-0.729168 v 1.667972 q -0.865887,0.355469 -1.759118,0.565105 -0.884116,0.21875 -1.813806,0.21875 z M 44.90772,8.1666819 q 0,-0.8476578 -0.255209,-1.5312528 -0.255209,-0.683595 -0.820314,-1.0846374 -0.55599,-0.4010424 -1.476565,-0.4010424 -0.929689,0 -1.558596,0.410157 -0.619793,0.4010424 -0.975263,1.0846374 -0.346354,0.683595 -0.4375,1.5221382 z"
       id="path34396" />
    <path
       d="m 52.728045,14.446641 q -1.111981,0 -1.868493,-0.473959 -0.756511,-0.473959 -1.212241,-1.266929 -0.446616,-0.792971 -0.647137,-1.750004 -0.200521,-0.9661472 -0.200521,-1.9414093 0,-2.4427128 1.066408,-3.8645904 1.075523,-1.4218775 2.898443,-1.4218775 0.893231,0 1.604169,0.3828132 0.710939,0.3736986 1.130211,1.1666687 V 4.6566129e-7 H 57.17597 V 14.182318 h -1.513023 l -0.164063,-1.285159 q -0.902346,1.549482 -2.770839,1.549482 z m 0.300782,-1.421877 q 0.79297,0 1.276044,-0.373699 0.492189,-0.373699 0.747397,-0.966148 0.264324,-0.601563 0.35547,-1.285158 0.09115,-0.6927098 0.09115,-1.3216171 0,-0.6197928 -0.09115,-1.3033878 -0.09115,-0.683595 -0.35547,-1.276044 Q 54.79706,5.8971465 54.304871,5.5234479 53.821797,5.1497493 53.028827,5.1497493 q -0.802085,0 -1.294273,0.3736986 -0.483074,0.3736986 -0.738283,0.9752622 -0.246094,0.592449 -0.33724,1.276044 -0.09115,0.683595 -0.09115,1.3033878 0,0.6197927 0.09115,1.3125021 0.09115,0.683595 0.33724,1.285159 0.255209,0.592449 0.738283,0.975262 0.492188,0.373699 1.294273,0.373699 z"
       id="path34398" />
  </g>
  <g
     aria-label="Points"
     id="text27374"
     style="font-size:18.6667px;line-height:1.25;font-family:Hack;-inkscape-font-specification:'Hack, Normal';fill:#ffffff"
     transform="translate(-2.9094517e-6,0.49666016)">
    <path
       d="M 2.9094517e-6,16.845169 H 3.9739684 q 2.2604208,0 3.4544333,1.029949 0.6106782,0.537762 0.8932308,1.312503 0.2825526,0.765626 0.2825526,1.731774 0,2.005212 -1.1666688,3.035161 -1.1575541,1.02995 -3.4635479,1.02995 H 1.8411521 v 5.46876 H 2.9094517e-6 Z M 3.9739684,23.471483 q 0.683595,0 1.1757834,-0.182292 0.4921884,-0.182292 0.820314,-0.492189 0.7109388,-0.67448 0.7109388,-1.886722 0,-1.212242 -0.7109388,-1.886722 Q 5.2773562,18.358192 3.9739684,18.358192 H 1.8411521 v 5.113291 z"
       id="path34401" />
    <path
       d="m 15.303416,30.71759 q -2.132817,0 -3.263027,-1.376305 -1.121096,-1.385419 -1.121096,-3.973966 0,-2.59766 1.130211,-3.98308 1.13021,-1.385419 3.244797,-1.385419 2.114587,0 3.235683,1.385419 1.13021,1.376305 1.13021,3.992195 0,2.597661 -1.121095,3.973966 -1.121096,1.36719 -3.235683,1.36719 z m -0.0091,-1.421878 q 1.2487,0 1.914066,-1.020835 0.67448,-1.020835 0.67448,-2.925787 0,-1.895836 -0.67448,-2.907557 -0.665366,-1.020835 -1.914066,-1.020835 -1.257815,0 -1.932295,1.020835 -0.665366,1.011721 -0.665366,2.907557 0,1.904952 0.674481,2.925787 0.67448,1.020835 1.92318,1.020835 z"
       id="path34403" />
    <path
       d="m 25.67583,18.394651 q -0.273438,0 -0.273438,-0.273438 v -1.576826 q 0,-0.273438 0.273438,-0.273438 h 1.312502 q 0.273438,0 0.273438,0.273438 v 1.576826 q 0,0.273438 -0.273438,0.273438 z m 3.062506,12.131532 q -1.503909,0 -2.333338,-0.966148 -0.820314,-0.975262 -0.820314,-2.73438 v -5.268238 h -2.233077 v -1.312503 h 3.910163 v 6.580741 q 0,1.111982 0.419272,1.695316 0.419272,0.583334 1.221356,0.583334 h 1.959639 v 1.421878 z"
       id="path34405" />
    <path
       d="m 33.924543,20.244914 h 1.513024 l 0.164063,1.531253 q 0.920574,-1.777347 2.998703,-1.777347 3.126308,0 3.126308,4.128914 v 6.325532 H 40.04044 v -6.325532 q 0,-1.376305 -0.483074,-2.023441 -0.473959,-0.647137 -1.476565,-0.647137 -1.194013,0 -1.841149,0.847658 -0.638022,0.838543 -0.638022,2.37891 v 5.769542 h -1.677087 z"
       id="path34407" />
    <path
       d="m 50.740979,30.489725 q -1.877608,0 -2.661463,-0.756512 -0.774741,-0.765627 -0.774741,-2.606776 v -5.578135 h -2.725266 v -1.303388 h 2.725266 v -2.670577 l 1.677086,-0.729168 v 3.399745 h 3.809903 v 1.303388 h -3.809903 v 5.578135 q 0,1.121096 0.428386,1.576826 0.428387,0.446615 1.494795,0.446615 h 1.886722 v 1.339847 z"
       id="path34409" />
    <path
       d="m 59.992296,30.71759 q -1.458336,0 -3.427089,-0.638022 v -1.731774 q 1.914066,0.966147 3.40886,0.966147 1.066408,0 1.70443,-0.446615 0.638022,-0.446616 0.638022,-1.194013 0,-0.647136 -0.537761,-1.039064 -0.528647,-0.401043 -1.695316,-0.647137 l -0.701824,-0.145833 q -1.440106,-0.291668 -2.114587,-0.957033 -0.665366,-0.674481 -0.665366,-1.832035 0,-1.46745 1.002606,-2.260421 1.002606,-0.79297 2.85287,-0.79297 1.567711,0 3.035162,0.601564 v 1.640628 q -1.430992,-0.838543 -2.989589,-0.838543 -2.205733,0 -2.205733,1.503909 0,0.492188 0.191406,0.783855 0.191407,0.282553 0.729168,0.483074 0.537762,0.191406 1.585941,0.401042 l 0.67448,0.127605 q 2.533859,0.501303 2.533859,2.761723 0,1.513024 -1.075523,2.388026 -1.075523,0.865887 -2.944016,0.865887 z"
       id="path34411" />
  </g>
  <g
     inkscape:groupmode="layer"
     id="layer4"
     inkscape:label="under_map"
     style="display:inline"
     transform="translate(0,0.04807523)">
    <rect
       style="fill:#11232c;fill-opacity:1;stroke:#050f0f;stroke-linecap:round;stroke-linejoin:round;stroke-opacity:1"
       id="rect35351"
       width="49.362225"
       height="30.087795"
       x="70.383614"
       y="0.45192477"
       ry="6.9516335"
       rx="8.0416603" />
    <rect
       style="fill:#11232c;fill-opacity:1;stroke:#11232c;stroke-linecap:round;stroke-linejoin:round;stroke-opacity:1"
       id="rect37245"
       width="1.5668299"
       height="0"
       x="68.535416"
       y="1.3267765" />
  </g>
  <g
     inkscape:groupmode="layer"
     id="layer3"
     inkscape:label="mapping"
     style="display:inline"
     transform="translate(0,0.04807523)">
    <path
       d="m 74.826,24.839675 h 2.011648 l 1.467514,-1.731337 c 0.280312,-0.346267 0.709024,-0.890401 1.022313,-1.302624 h 0.09893 c 0.197867,0.412223 0.461689,0.956357 0.659556,1.352091 l 0.873913,1.68187 h 1.846759 l -2.193026,-4.056274 3.611073,-4.039785 h -1.995155 l -1.36858,1.632402 c -0.263823,0.31329 -0.725513,1.022313 -0.972847,1.368581 h -0.06595 C 79.673742,19.365354 79.40992,18.755264 79.228542,18.376018 L 78.420585,16.743616 H 76.623292 L 78.601963,20.635 Z"
       style="font-style:italic;font-weight:600;font-size:23.5556px;font-family:'Source Code Pro';-inkscape-font-specification:'Source Code Pro, Semi-Bold Italic';display:inline;fill:#feffff;fill-opacity:0.7;stroke-width:0.7"
       id="path35196" />
    <path
       d="m 93.598519,17.039044 h 1.780803 l 1.319114,-6.694501 h 3.116405 l 0.280309,-1.4015579 h -3.116403 l 0.115422,-0.577112 c 0.263824,-1.2696471 0.989336,-1.7478261 1.99516,-1.7478261 0.659557,0 1.121251,0.1813781 1.599421,0.527645 l 0.80796,-1.121246 C 100.95258,5.5957341 100.12813,5.2 99.023373,5.2 c -1.962181,0 -3.248317,0.9893352 -3.677029,3.1328951 l -0.115422,0.61009 -2.275471,0.08244 -0.263823,1.3191129 h 2.258982 z"
       style="font-style:italic;font-weight:600;font-size:23.5556px;font-family:'Source Code Pro';-inkscape-font-specification:'Source Code Pro, Semi-Bold Italic';display:inline;fill:#ffffff;fill-opacity:0.7;stroke-width:0.7"
       id="path35199" />
    <path
       d="m 107.66535,24.839675 h 2.01165 l 1.46751,-1.731337 c 0.28031,-0.346267 0.70902,-0.890401 1.02231,-1.302624 h 0.0989 c 0.19786,0.412223 0.46169,0.956357 0.65955,1.352091 l 0.87392,1.68187 h 1.84676 l -2.19303,-4.056274 3.61107,-4.039785 h -1.99516 l -1.36858,1.632402 c -0.26382,0.31329 -0.72551,1.022313 -0.97284,1.368581 h -0.066 c -0.1484,-0.379245 -0.41222,-0.989335 -0.5936,-1.368581 l -0.80795,-1.632402 h -1.7973 l 1.97867,3.891384 z"
       style="font-style:italic;font-weight:600;font-size:23.5556px;font-family:'Source Code Pro';-inkscape-font-specification:'Source Code Pro, Semi-Bold Italic';display:inline;fill:#ffffff;fill-opacity:0.7;stroke-width:0.7"
       id="path35202" />
    <line
       x1="86.637863"
       y1="20.662022"
       x2="106.23786"
       y2="20.662022"
       style="display:inline;fill:#feffff;fill-opacity:0.7;stroke:#c8c8c8;stroke-width:1.4;stroke-opacity:1"
       stroke="#000000"
       stroke-linecap="round"
       id="line117" />
    <line
       x1="86.497864"
       y1="17.862022"
       x2="86.497864"
       y2="23.462025"
       style="display:inline;fill:#ffffff;fill-opacity:0.7;stroke:#c8c8c8;stroke-width:1.26147;stroke-opacity:1"
       stroke="#000000"
       stroke-linecap="round"
       id="line119" />
    <line
       x1="104.13787"
       y1="17.862022"
       x2="106.37787"
       y2="20.662022"
       style="display:inline;fill:#feffff;fill-opacity:0.7;stroke:#c8c8c8;stroke-width:1.4;stroke-opacity:1"
       stroke="#000000"
       stroke-linecap="round"
       id="line121" />
    <line
       x1="104.13787"
       y1="23.462025"
       x2="106.37787"
       y2="20.662022"
       style="display:inline;fill:#feffff;fill-opacity:0.7;stroke:#c8c8c8;stroke-width:1.4;stroke-opacity:1"
       stroke="#000000"
       stroke-linecap="round"
       id="line123" />
  </g>
</svg>
